# xmcd
#
# Track frame offsets:
#	150
#	24734
#	45810
#	66143
#	86652
#	115600
#	140535
#	162925
#	185556
#	207243
#	226352
#
# Disc length: 3229 seconds
#
# Revision: 1
# Processed by: cddbd v1.5.1PL0 Copyright (c) Steve Scherf et al.
# Submitted via: CDex 1.50Beta5
#
DISCID=8d0c9b0b
DTITLE=光永亮太 - Inside my heart
DYEAR=1900
DGENRE=Pop
TTITLE0=Timeless
TTITLE1=Always
TTITLE2=記憶
TTITLE3=Wonder
TTITLE4=小さな世界
TTITLE5=Joy
TTITLE6=Eternal
TTITLE7=blow up
TTITLE8=いつか君が
TTITLE9=寄り添うように…
TTITLE10=Always(piano mix)
EXTD=
EXTT0=
EXTT1=
EXTT2=
EXTT3=
EXTT4=
EXTT5=
EXTT6=
EXTT7=
EXTT8=
EXTT9=
EXTT10=
PLAYORDER=
